<svg xmlns="http://www.w3.org/2000/svg" xmlns:xlink="http://www.w3.org/1999/xlink" width="249.81" height="61.3" viewBox="0 0 249.81 61.3">
  <defs>
    <filter id="パス_1" x="0" y="0" width="249.81" height="61.3" filterUnits="userSpaceOnUse">
      <feOffset dx="2" dy="3" input="SourceAlpha"/>
      <feGaussianBlur result="blur"/>
      <feFlood flood-color="#ffba00" flood-opacity="0.686"/>
      <feComposite operator="in" in2="blur"/>
      <feComposite in="SourceGraphic"/>
    </filter>
  </defs>
  <g id="コンポーネント_1_1" data-name="コンポーネント 1 – 1" transform="translate(0.5 0.5)">
    <g transform="matrix(1, 0, 0, 1, -0.5, -0.5)" filter="url(#パス_1)">
      <path id="パス_1-2" data-name="パス 1" d="M27.99-38.58h8.79L11.55-12.72v-8.79ZM18.72-22.56,37.83,0H29.58L14.25-18.39ZM5.73-38.58h6.45V0H5.73ZM62.46,0l-.81-6.84V-18.72q0-3.3-1.365-4.83T55.86-25.08a8.581,8.581,0,0,0-3.075.51,4.453,4.453,0,0,0-2.07,1.515,4.079,4.079,0,0,0-.735,2.475H42.96a8.381,8.381,0,0,1,1.575-5.3,9.02,9.02,0,0,1,4.47-2.97,22.173,22.173,0,0,1,6.855-.945A15.944,15.944,0,0,1,62.25-28.6a9.153,9.153,0,0,1,4.26,3.675,12.108,12.108,0,0,1,1.53,6.42V0Zm-9.6.81A13.058,13.058,0,0,1,46.725-.48,8.974,8.974,0,0,1,43.05-3.87a8.756,8.756,0,0,1-1.23-4.5,7.365,7.365,0,0,1,1.455-4.68,8.621,8.621,0,0,1,4.08-2.775,18.539,18.539,0,0,1,6.1-.915,25.213,25.213,0,0,1,4.515.39,40.792,40.792,0,0,1,4.275,1.02v3.81a21.875,21.875,0,0,0-3.75-.93,23.778,23.778,0,0,0-3.78-.33,8.571,8.571,0,0,0-4.365,1,3.619,3.619,0,0,0-1.725,3.4,3.929,3.929,0,0,0,1.38,3,6.366,6.366,0,0,0,4.38,1.26,7.279,7.279,0,0,0,3.87-.99,7.2,7.2,0,0,0,2.5-2.49,5.86,5.86,0,0,0,.885-3h1.53A13.451,13.451,0,0,1,62-4.935a9.944,9.944,0,0,1-3.5,4.17A9.774,9.774,0,0,1,52.86.81ZM98.76,0V-16.98a7.463,7.463,0,0,0-1.68-5.3,5.849,5.849,0,0,0-4.47-1.785,6.551,6.551,0,0,0-3.96,1.245A7.961,7.961,0,0,0,86-19.14a16.541,16.541,0,0,0-.945,5.97H82.86a26.415,26.415,0,0,1,1.38-9.18,11.753,11.753,0,0,1,3.945-5.565A10.063,10.063,0,0,1,94.29-29.79a10.6,10.6,0,0,1,5.955,1.59,9.807,9.807,0,0,1,3.645,4.47,17.087,17.087,0,0,1,1.23,6.75V0ZM78.66,0V-28.98h5.55l.84,6V0ZM119.4-34.74a4.1,4.1,0,0,1-2.955-1.02,3.681,3.681,0,0,1-1.065-2.79,3.653,3.653,0,0,1,1.065-2.745A4.061,4.061,0,0,1,119.4-42.33a4.072,4.072,0,0,1,2.94,1.035,3.626,3.626,0,0,1,1.08,2.745,3.653,3.653,0,0,1-1.08,2.79A4.108,4.108,0,0,1,119.4-34.74ZM116.22,0V-29.07h6.39V0Zm18.66,0V-38.58h15.24a16.97,16.97,0,0,1,7.3,1.38,10,10,0,0,1,4.335,3.69,9.5,9.5,0,0,1,1.44,5.13,8.894,8.894,0,0,1-1.83,5.625,9.574,9.574,0,0,1-5.22,3.285,10.109,10.109,0,0,1,3.96,1.635,8.851,8.851,0,0,1,2.745,3.06,8.481,8.481,0,0,1,1,4.125,11.319,11.319,0,0,1-.66,3.75,9.188,9.188,0,0,1-2.205,3.45A11,11,0,0,1,156.81-.945,19.9,19.9,0,0,1,150.18,0Zm6.39-5.58h8.76q3.63,0,5.295-1.5a5.039,5.039,0,0,0,1.665-3.93,4.972,4.972,0,0,0-1.74-3.96,7.817,7.817,0,0,0-5.22-1.5h-8.76Zm0-27.48v11.04h8.58a7.571,7.571,0,0,0,5.025-1.485,5.112,5.112,0,0,0,1.755-4.125,4.955,4.955,0,0,0-1.71-3.96,7.49,7.49,0,0,0-5.01-1.47ZM173.31,0V-41.1h6.39V0Zm28.98.81A14.659,14.659,0,0,1,195.18-.9,12.44,12.44,0,0,1,190.17-6a17.416,17.416,0,0,1-1.86-8.46,17.626,17.626,0,0,1,1.86-8.55,12.342,12.342,0,0,1,5.01-5.085,14.764,14.764,0,0,1,7.11-1.695,14.638,14.638,0,0,1,7.05,1.695,12.25,12.25,0,0,1,4.995,5.085,17.745,17.745,0,0,1,1.845,8.55A17.533,17.533,0,0,1,214.335-6,12.347,12.347,0,0,1,209.34-.9,14.534,14.534,0,0,1,202.29.81Zm-.21-5.58a7.219,7.219,0,0,0,4.035-1.125A7.362,7.362,0,0,0,208.8-9.18a12.974,12.974,0,0,0,.96-5.28q0-4.77-1.9-7.29a6.324,6.324,0,0,0-5.355-2.52,7.293,7.293,0,0,0-4.05,1.125,7.314,7.314,0,0,0-2.7,3.3,13.339,13.339,0,0,0-.96,5.385q0,4.68,1.935,7.185A6.389,6.389,0,0,0,202.08-4.77Zm33.6,19.74a23.083,23.083,0,0,1-8.295-1.335,12.821,12.821,0,0,1-5.325-3.54A7.276,7.276,0,0,1,220.2,5.31,5.687,5.687,0,0,1,222.51.45a9.569,9.569,0,0,1,5.85-1.71L232.8.57a7.932,7.932,0,0,0-4.68,1.185,3.791,3.791,0,0,0-1.65,3.255,3.991,3.991,0,0,0,2.43,3.51,14.09,14.09,0,0,0,6.78,1.35,14.9,14.9,0,0,0,5.565-.945A9.365,9.365,0,0,0,244.9,6.48a4.814,4.814,0,0,0,1.3-3.21,2.584,2.584,0,0,0-.795-1.92A3.37,3.37,0,0,0,242.97.57H232.8a14.078,14.078,0,0,1-5.265-.93,9.332,9.332,0,0,1-3.675-2.49,5.151,5.151,0,0,1-1.35-3.45,4.937,4.937,0,0,1,1.02-3.135,6.533,6.533,0,0,1,2.745-2.01,10.021,10.021,0,0,1,3.825-.7l1.53,2.16a4.3,4.3,0,0,0-1.71.36,3.276,3.276,0,0,0-1.365,1.065,2.857,2.857,0,0,0-.525,1.755,2.465,2.465,0,0,0,1.05,2.055,6.407,6.407,0,0,0,3.72.8h10.17a12.48,12.48,0,0,1,7.02,1.71,5.765,5.765,0,0,1,2.55,5.13,9.662,9.662,0,0,1-2.04,5.8,14.713,14.713,0,0,1-5.82,4.53A21.218,21.218,0,0,1,235.68,14.97Zm.51-23.79a14.478,14.478,0,0,1-6.21-1.305,11.083,11.083,0,0,1-4.455-3.66,9.291,9.291,0,0,1-1.665-5.505,9.408,9.408,0,0,1,1.665-5.55,10.924,10.924,0,0,1,4.455-3.66,14.621,14.621,0,0,1,6.21-1.29,14.3,14.3,0,0,1,6.1,1.29,11.169,11.169,0,0,1,4.47,3.66,9.291,9.291,0,0,1,1.695,5.55,9.176,9.176,0,0,1-1.695,5.505,11.335,11.335,0,0,1-4.47,3.66A14.165,14.165,0,0,1,236.19-8.82Zm.03-4.47a5.575,5.575,0,0,0,4.425-1.725,6.246,6.246,0,0,0,1.515-4.275,6.179,6.179,0,0,0-1.515-4.35,5.749,5.749,0,0,0-4.455-1.65,5.827,5.827,0,0,0-4.425,1.65,6.038,6.038,0,0,0-1.575,4.35,6.1,6.1,0,0,0,1.575,4.275A5.727,5.727,0,0,0,236.22-13.29Zm10.02-11.85-2.94-1.59a8.811,8.811,0,0,1,1.14-4.53,7.972,7.972,0,0,1,3.12-3.03A9.119,9.119,0,0,1,252-35.37l-.36,6.18a6.866,6.866,0,0,0-4.005.99A3.5,3.5,0,0,0,246.24-25.14Z" transform="translate(-5.23 42.83)" fill="#fff" stroke="#000" stroke-width="1"/>
    </g>
  </g>
</svg>
