<svg xmlns="http://www.w3.org/2000/svg" xmlns:xlink="http://www.w3.org/1999/xlink" width="1050.55" height="915.039" viewBox="0 0 1050.55 915.039"><defs><linearGradient id="a" x1="0.5" x2="0.5" y2="1.114" gradientUnits="objectBoundingBox"><stop offset="0" stop-color="#b3aaff"/><stop offset="1" stop-color="#fcb2f6"/></linearGradient><linearGradient id="b" x1="0.362" y1="0.918" x2="0.64" y2="0.04" gradientUnits="objectBoundingBox"><stop offset="0" stop-color="#ffd800"/><stop offset="1" stop-color="#ff9c53"/></linearGradient></defs><g transform="translate(-55.159 -116.446)"><path d="M295.015,765.517h0L0,274.529,456.893,0,751.909,490.988,295.016,765.517ZM446.36,48.631h0L47.885,288.06,305.548,716.885,704.024,477.457,446.36,48.632Z" transform="translate(227.363 116.446) rotate(13)" fill="url(#a)"/><path d="M425.943,73.616l101.347,116.7,13.434,154.063L461.113,476.957,318.866,537.416,168.318,502.659,66.972,385.963,53.538,231.9,133.149,99.318,275.395,38.859Z" transform="translate(564.986 148.348)" fill="url(#b)"/><path d="M153.816,48.218l27.29,31.423,3.617,41.485-21.437,35.7-38.3,16.28-40.538-9.359-27.29-31.423L53.538,90.84l21.437-35.7,38.3-16.28Z" transform="translate(643.17 640.571) rotate(21)" fill="url(#b)"/><path d="M110.561,44.181,126.079,62.05l2.057,23.59-12.19,20.3L94.165,115.2l-23.052-5.322L55.6,92.008l-2.057-23.59,12.19-20.3,21.781-9.257Z" transform="translate(576.599 769.214) rotate(43)" fill="url(#b)"/></g></svg>